<?xml version="1.0" standalone="no"?>
<svg class="icon" viewBox="0 0 1024 1024" version="1.1" xmlns="http://www.w3.org/2000/svg" p-id="2469"
     width="14" height="14">
    <defs>
        <style type="text/css"/>
    </defs>
    <path
        d="M849.1 128 174.9 128c-25.9 0-46.9 21-46.9 46.9l0 34.2c0 25.9 21 46.9 46.9 46.9l674.2 0c25.9 0 46.9-21 46.9-46.9l0-34.2C896 149 875 128 849.1 128z"
        fill="#AFB1B3"/>
    <path
        d="M849.1 768 174.9 768c-25.9 0-46.9 21-46.9 46.9l0 34.2c0 25.9 21 46.9 46.9 46.9l674.2 0c25.9 0 46.9-21 46.9-46.9l0-34.2C896 789 875 768 849.1 768z"
        fill="#AFB1B3"/>
    <path
        d="M849.1 448 174.9 448c-25.9 0-46.9 21-46.9 46.9l0 34.2c0 25.9 21 46.9 46.9 46.9l674.2 0c25.9 0 46.9-21 46.9-46.9l0-34.2C896 469 875 448 849.1 448z"
        fill="#AFB1B3"/>
</svg>
