<?xml version="1.0" standalone="no"?>
<svg class="icon" viewBox="0 0 1024 1024" version="1.1" xmlns="http://www.w3.org/2000/svg"
     width="24" height="24">
    <path
        d="M754.161747 422.725904V177.650841l0.590039-0.405652L473.168073 0 226.015582 176.212621l0.651501 0.921936h-0.086048v267.533414L9.237795 599.872754l0.442529 0.626916v288.787102l271.88495 133.987972v-0.09834l0.516284 0.823596 230.065952-142.789383L757.849489 1002.279198l0.503992 0.823595L1013.766515 844.492995V579.725388l0.99569-0.676086z m-22.741078 287.004694l-202.825828-107.866463 200.182946-133.434811 189.230352 113.521002z m-476.087536 21.069301L60.743263 627.334142l201.227806-143.699027L471.434834 586.830438z m446.561012-317.145841L498.478278 549.215466v-196.679591L701.91873 213.397357zM474.987359 62.900592L659.509694 179.064475 471.791316 307.459371l-194.663626-103.490342zM281.565274 962.808062V776.146837l204.362388-136.212909v196.040383z m679.93364-147.399061L757.849489 941.873978v-186.845612l203.686302-139.495z"
        fill="#d7dae0"/>
</svg>